:version 1.10
:name ASF
:units
  mass 1
  length 1
  angle deg
:documentation
  ASF file generated by Kaydara
:root
  axis xyz
  order  tx ty tz rx ry rz
  position 0 0 0
  orientation 0 0 0
:bonedata
  begin
    id 1
    name RightUpLegDummy
    direction -0.65628 -0.754516 0.00165102
    length 4.76918
    axis 0 0 0 xyz
  end
  begin
    id 2
    name RightUpLeg
    direction -0.145584 -0.923362 0.355256
    length 17.9961
    axis -24.7611 -13.1006 1.78531 xyz
    dof rx ry rz
  end
  begin
    id 3
    name RightLeg
    direction 0.263379 0.172355 -0.949171
    length 13.3386
    axis 89.6202 -21.1929 12.3855 xyz
    dof rx ry rz
  end
  begin
    id 4
    name RightFoot
    direction 0.224283 -0.968777 -0.105675
    length 5.86697
    axis 56.995 -39.6905 17.3365 xyz
    dof rx ry rz
  end
  begin
    id 5
    name RightToes
    direction -0.0806345 -0.9037 0.420506
    length 4.75197
    axis 146.825 -39.7828 17.6019 xyz
    dof rx ry rz
  end
  begin
    id 6
    name SpineDummy
    direction -3.39852e-014 1 9.33296e-014
    length 8.13779
    axis 0 0 0 xyz
  end
  begin
    id 7
    name Spine
    direction -0.156609 0.733703 0.661176
    length 7.14978
    axis 41.2365 5.68757 17.0844 xyz
    dof rx ry rz
  end
  begin
    id 8
    name Spine1
    direction 0 0 0
    length 0
    axis 42.8809 47.8308 -3.36039 xyz
    dof rx ry rz
  end
  begin
    id 9
    name HEadDummy
    direction 0.546431 0.701947 0.456819
    length 3.55512
    axis 42.8809 47.8308 -3.36039 xyz
  end
  begin
    id 10
    name HEad
    direction 0.23444 0.828559 0.508457
    length 7.35827
    axis 51.1864 49.2662 27.4903 xyz
    dof rx ry rz
  end
  begin
    id 11
    name LeftShoulder1Dummy
    direction 0.431183 0.475873 -0.766568
    length 2.49352
    axis 42.8809 47.8308 -3.36039 xyz
  end
  begin
    id 12
    name LeftShoulder1
    direction 0.268187 -0.383402 -0.883786
    length 4.48604
    axis -119.517 0.106469 35.1736 xyz
    dof rx ry rz
  end
  begin
    id 13
    name LeftArm
    direction 0.380567 -0.703221 -0.600541
    length 10.1142
    axis -5.41825 36.2925 7.8293 xyz
    dof rx ry rz
  end
  begin
    id 14
    name LeftForeArm
    direction 0.541071 -0.732356 -0.413396
    length 9.39839
    axis 4.65387 33.7604 7.81644 xyz
    dof rx ry rz
  end
  begin
    id 15
    name LeftHand
    direction 0.847511 -0.389379 -0.360707
    length 3.66142
    axis 7.65593 21.1436 -24.6758 xyz
    dof rx ry rz
  end
  begin
    id 16
    name RightShoulderDummy
    direction -0.692546 0.541855 0.476208
    length 2.49352
    axis 42.8809 47.8308 -3.36039 xyz
  end
  begin
    id 17
    name RightShoulder
    direction -0.870808 -0.316653 0.376065
    length 4.48602
    axis 141.571 51.133 -100.254 xyz
    dof rx ry rz
  end
  begin
    id 18
    name RightArm
    direction 0.366897 -0.87275 0.322015
    length 10.1142
    axis 92.3258 71.2036 138.917 xyz
    dof rx ry rz
  end
  begin
    id 19
    name RightForeArm
    direction 0.702487 -0.694568 0.155197
    length 9.39835
    axis 153.863 41.5092 -176.604 xyz
    dof rx ry rz
  end
  begin
    id 20
    name RightHand
    direction 0.79502 -0.601276 0.0800636
    length 3.66142
    axis 154.247 4.59222 142.9 xyz
    dof rx ry rz
  end
  begin
    id 21
    name LeftUpLegDummy
    direction 0.65628 -0.754516 0.00165102
    length 4.76919
    axis 0 0 0 xyz
  end
  begin
    id 22
    name LeftUpLeg
    direction -0.1277 -0.689368 0.713067
    length 17.9961
    axis -48.3385 -17.8675 0.791927 xyz
    dof rx ry rz
  end
  begin
    id 23
    name LeftLeg
    direction 0.109849 -0.991246 -0.0732378
    length 13.3386
    axis -2.05791 -7.30784 1.72042 xyz
    dof rx ry rz
  end
  begin
    id 24
    name LeftFoot
    direction 0.0448355 -0.272614 0.961078
    length 5.86697
    axis -18.7733 -7.89606 10.2113 xyz
    dof rx ry rz
  end
  begin
    id 25
    name LeftToes
    direction -0.18506 0.293668 0.937823
    length 4.75197
    axis 71.2267 -7.89606 10.2113 xyz
    dof rx ry rz
  end
:hierarchy
  begin
    root RightUpLegDummy SpineDummy LeftUpLegDummy
    RightUpLegDummy RightUpLeg
    RightUpLeg RightLeg
    RightLeg RightFoot
    RightFoot RightToes
    SpineDummy Spine
    Spine Spine1
    Spine1 HEadDummy LeftShoulder1Dummy RightShoulderDummy
    HEadDummy HEad
    LeftShoulder1Dummy LeftShoulder1
    LeftShoulder1 LeftArm
    LeftArm LeftForeArm
    LeftForeArm LeftHand
    RightShoulderDummy RightShoulder
    RightShoulder RightArm
    RightArm RightForeArm
    RightForeArm RightHand
    LeftUpLegDummy LeftUpLeg
    LeftUpLeg LeftLeg
    LeftLeg LeftFoot
    LeftFoot LeftToes
  end

:SAMPLES-PER-SECOND 30
:FULLY-SPECIFIED
:DEGREES
160
root  -3.78398 36.3364 9.76932 -179.759 28.9478 -177.812
RightUpLeg  4.05916 15.0273 11.0356
RightLeg  -46.2226 -7.07428 -8.19743
RightFoot  10.4124 0.540134 -6.07549
RightToes  -1.27222e-014 -6.36111e-015 6.36111e-015
Spine  -19.6851 -15.2707 -7.58244
Spine1  -5.29943 -14.1234 44.5792
HEad  -0.225147 8.78046 -11.8002
LeftShoulder1  6.36111e-015 -1.33558e-015 6.49777e-015
LeftArm  -55.3876 -77.4553 37.0119
LeftForeArm  -80.7393 -64.5944 94.4679
LeftHand  -4.43494 -17.1832 -28.6795
RightShoulder  -4.77083e-015 -6.36111e-015 -3.18055e-015
RightArm  19.2695 8.88208 10.863
RightForeArm  -12.1081 26.8351 -26.5911
RightHand  -2.05264 7.45031 12.2698
LeftUpLeg  6.92387 23.5926 9.20708
LeftLeg  8.58693 1.65683 1.37103
LeftFoot  -3.67747 2.00547 -7.56208
LeftToes  1.27222e-014 1.09105e-011 6.96064e-012
161
root  -3.44986 36.1353 10.8426 -174.835 28.2163 -175.674
RightUpLeg  6.69679 9.10257 12.6856
RightLeg  -53.6888 -9.7994 -6.57692
RightFoot  4.74738 4.47388 -11.8596
RightToes  -1.27222e-014 -6.36111e-015 6.36111e-015
Spine  -18.6497 -12.436 -6.06793
Spine1  -9.81157 -12.4431 39.949
HEad  -2.9744 4.60117 -9.5336
LeftShoulder1  6.36111e-015 -1.33558e-015 6.49777e-015
LeftArm  -99.2228 -76.3983 79.1633
LeftForeArm  -63.352 -68.2091 74.3978
LeftHand  -4.41295 -15.6281 -25.9398
RightShoulder  -4.77083e-015 -6.36111e-015 -3.18055e-015
RightArm  18.8568 17.3655 13.3665
RightForeArm  -6.38248 25.7046 -21.5901
RightHand  -1.63371 4.97589 9.22257
LeftUpLeg  1.28523 29.8457 11.8246
LeftLeg  -3.58921 5.64218 -0.254342
LeftFoot  0.861024 2.27687 -7.4436
LeftToes  1.27222e-014 1.09105e-011 6.96064e-012
162
root  -3.14799 35.6629 11.9005 -170.71 28.5061 -173.273
RightUpLeg  7.84769 8.25281 17.0691
RightLeg  -60.0538 -10.9237 -5.70949
RightFoot  -4.89846 7.26341 -15.9685
RightToes  -1.27222e-014 -6.36111e-015 6.36111e-015
Spine  -17.7962 -10.0014 -4.90841
Spine1  -11.1048 -11.207 35.0066
HEad  -9.22928 0.646262 -8.17264
LeftShoulder1  6.36111e-015 -1.33558e-015 6.49777e-015
LeftArm  -122.99 -69.3675 101.018
LeftForeArm  -41.4099 -68.4816 50.2973
LeftHand  -4.44838 -14.5557 -22.3666
RightShoulder  -4.77083e-015 -6.36111e-015 -3.18055e-015
RightArm  17.1221 27.1664 13.4204
RightForeArm  -3.0311 21.3227 -16.7825
RightHand  -0.83509 2.19525 4.22056
LeftUpLeg  -3.66181 35.4222 12.8864
LeftLeg  -9.8353 5.63534 -1.69693
LeftFoot  3.27739 1.64951 -5.02736
LeftToes  1.27222e-014 1.09105e-011 6.96064e-012
163
root  -2.92217 35.1515 12.8344 -169.092 28.2504 -172.285
RightUpLeg  6.89954 10.5611 21.3727
RightLeg  -61.1032 -12.4184 -3.62785
RightFoot  -11.0764 7.89519 -16.3443
RightToes  -1.27222e-014 -6.36111e-015 6.36111e-015
Spine  -17.7308 -9.66223 -5.71535
Spine1  -6.90607 -10.0792 32.0264
HEad  -17.9578 -2.27577 -7.41394
LeftShoulder1  6.36111e-015 -1.33558e-015 6.49777e-015
LeftArm  -130.456 -62.0939 105.609
LeftForeArm  -20.6581 -66.6336 29.3881
LeftHand  -4.3552 -13.094 -18.2221
RightShoulder  -4.77083e-015 -6.36111e-015 -3.18055e-015
RightArm  14.2181 36.6981 10.6228
RightForeArm  -0.631893 14.8667 -12.1935
RightHand  -0.154087 1.15971 -0.350046
LeftUpLeg  -6.80089 33.0272 11.5671
LeftLeg  -10.8259 4.95529 -1.88647
LeftFoot  3.29479 1.34786 -4.10326
LeftToes  1.27222e-014 1.09105e-011 6.96064e-012
164
root  -2.6166 34.5837 13.2587 -170.797 25.4606 -173.59
RightUpLeg  5.91456 10.4742 22.5855
RightLeg  -58.4972 -16.3527 1.31234
RightFoot  -12.9759 7.72301 -15.2435
RightToes  -1.27222e-014 -6.36111e-015 6.36111e-015
Spine  -18.2443 -11.2449 -7.81132
Spine1  -2.51225 -9.95604 33.3668
HEad  -22.8887 -4.0166 -6.36029
LeftShoulder1  6.36111e-015 -1.33558e-015 6.49777e-015
LeftArm  -130.983 -61.9225 100.245
LeftForeArm  -8.06776 -61.7256 15.8902
LeftHand  -3.58089 -9.42785 -13.5996
RightShoulder  -4.77083e-015 -6.36111e-015 -3.18055e-015
RightArm  11.1085 39.9221 7.34591
RightForeArm  0.58608 9.30278 -9.27107
RightHand  0.0562025 1.64669 -2.93066
LeftUpLeg  -7.89169 29.9362 8.93567
LeftLeg  -8.53954 8.16982 -1.41198
LeftFoot  1.24132 0.939362 -3.01334
LeftToes  1.27222e-014 1.09105e-011 6.96064e-012
165
root  -2.20071 34.0517 13.0054 -174.663 19.7351 -176.655
RightUpLeg  7.02001 7.98747 20.8159
RightLeg  -56.4176 -21.4743 6.65258
RightFoot  -13.0536 7.23718 -13.5507
RightToes  -1.27222e-014 -6.36111e-015 6.36111e-015
Spine  -18.5386 -13.8725 -9.95779
Spine1  -2.29007 -11.4149 37.1333
HEad  -19.182 -6.39623 -4.22167
LeftShoulder1  6.36111e-015 -1.33558e-015 6.49777e-015
LeftArm  -116.536 -72.0426 76.0475
LeftForeArm  -9.00153 -54.6331 12.3706
LeftHand  -2.28007 -5.10591 -8.48633
RightShoulder  -4.77083e-015 -6.36111e-015 -3.18055e-015
RightArm  8.84151 31.2314 5.72235
RightForeArm  -1.5629 6.92018 -9.55143
RightHand  0.122643 1.75696 -3.70331
LeftUpLeg  -7.74098 34.0807 5.83043
LeftLeg  -4.39118 15.2277 0.163118
LeftFoot  -2.0454 0.484552 -1.66326
LeftToes  1.27222e-014 1.09105e-011 6.96064e-012
166
root  -1.80949 33.5641 12.1668 -178.967 13.1481 179.947
RightUpLeg  10.1533 6.09841 18.3005
RightLeg  -54.6174 -26.0119 10.5103
RightFoot  -12.7402 6.55685 -11.3587
RightToes  -1.27222e-014 -6.36111e-015 6.36111e-015
Spine  -19.7152 -16.3231 -11.4738
Spine1  -3.65013 -13.0785 40.2282
HEad  -8.83738 -11.0733 -2.16863
LeftShoulder1  6.36111e-015 -1.33558e-015 6.49777e-015
LeftArm  -41.353 -74.5787 -8.13206
LeftForeArm  -18.4584 -46.9317 13.0359
LeftHand  -1.46135 -3.21668 -3.89016
RightShoulder  -4.77083e-015 -6.36111e-015 -3.18055e-015
RightArm  10.599 14.0151 5.29038
RightForeArm  -9.85772 4.65937 -12.5819
RightHand  0.133041 2.20156 -4.6282
LeftUpLeg  -5.34662 42.1761 4.63981
LeftLeg  1.66287 21.6831 3.58426
LeftFoot  -6.5652 0.747418 -3.01672
LeftToes  1.27222e-014 1.09105e-011 6.96064e-012
167
root  -1.58696 33.0376 10.9701 176.699 7.67862 176.85
RightUpLeg  13.9951 5.01132 15.7052
RightLeg  -51.2116 -30.5993 12.8893
RightFoot  -10.8931 5.49332 -8.72547
RightToes  -1.27222e-014 -6.36111e-015 6.36111e-015
Spine  -23.883 -18.3402 -12.976
Spine1  -0.263889 -14.0443 42.0977
HEad  1.9865 -16.3247 -2.33899
LeftShoulder1  6.36111e-015 -1.33558e-015 6.49777e-015
LeftArm  -10.9077 -56.6831 -42.7228
LeftForeArm  -29.3164 -37.9049 10.9016
LeftHand  -1.73997 -4.18596 -2.33978
RightShoulder  -4.77083e-015 -6.36111e-015 -3.18055e-015
RightArm  16.1673 -4.09608 3.37517
RightForeArm  -22.1692 -0.549982 -14.3318
RightHand  -0.520988 5.58166 -5.60759
LeftUpLeg  0.830772 49.5786 6.77128
LeftLeg  8.59668 22.6687 7.34224
LeftFoot  -11.5094 0.991826 -4.93789
LeftToes  1.27222e-014 1.09105e-011 6.96064e-012
168
root  -1.51149 32.4352 9.56743 172.495 3.20723 174.43
RightUpLeg  18.3638 2.9673 12.2003
RightLeg  -47.3741 -34.8736 14.0269
RightFoot  -7.77371 4.15156 -6.25852
RightToes  -1.27222e-014 -6.36111e-015 6.36111e-015
Spine  -31.2365 -19.9561 -14.1617
Spine1  7.96795 -14.6808 43.9535
HEad  10.2041 -19.8884 -4.77919
LeftShoulder1  6.36111e-015 -1.33558e-015 6.49777e-015
LeftArm  -3.31472 -39.7835 -48.741
LeftForeArm  -38.0102 -30.4409 6.25576
LeftHand  -2.63642 -6.54671 -3.43143
RightShoulder  -4.77083e-015 -6.36111e-015 -3.18055e-015
RightArm  24.0316 -20.0185 -1.45979
RightForeArm  -35.06 -7.35749 -12.2173
RightHand  -1.61106 10.1664 -4.51561
LeftUpLeg  9.3273 54.7748 11.3089
LeftLeg  15.5872 20.1751 10.1512
LeftFoot  -14.285 0.547689 -2.92616
LeftToes  1.27222e-014 1.09105e-011 6.96064e-012
169
root  -1.50954 31.7534 8.06855 169.459 -1.0034 173.274
RightUpLeg  23.2479 -0.506156 8.40373
RightLeg  -46.2119 -38.042 15.4131
RightFoot  -6.5152 3.33171 -4.63516
RightToes  -1.27222e-014 -6.36111e-015 6.36111e-015
Spine  -39.7221 -20.5774 -13.8274
Spine1  15.1907 -15.1297 45.7055
HEad  16.8726 -22.6139 -8.30072
LeftShoulder1  6.36111e-015 -1.33558e-015 6.49777e-015
LeftArm  4.6405 -28.6724 -49.0544
LeftForeArm  -43.5933 -30.196 5.93857
LeftHand  -3.12234 -7.86925 -4.80461
RightShoulder  -4.77083e-015 -6.36111e-015 -3.18055e-015
RightArm  37.3287 -34.7872 -11.6375
RightForeArm  -48.9917 -12.381 -7.589
RightHand  -1.92137 11.4036 -3.12896
LeftUpLeg  15.3824 56.7593 14.6994
LeftLeg  23.2415 18.2103 13.2295
LeftFoot  -14.3366 -0.154272 1.3589
LeftToes  1.27222e-014 1.09105e-011 6.96064e-012
170
root  -1.65238 31.0416 6.79152 168.158 -3.93338 173.008
RightUpLeg  27.2613 -3.74869 5.56807
RightLeg  -48.2152 -40.9433 18.426
RightFoot  -8.06749 3.40911 -3.98116
RightToes  -1.27222e-014 -6.36111e-015 6.36111e-015
Spine  -47.3625 -19.2037 -11.9291
Spine1  19.1816 -14.8626 45.8469
HEad  22.6096 -25.7172 -11.8574
LeftShoulder1  6.36111e-015 -1.33558e-015 6.49777e-015
LeftArm  15.7408 -24.3208 -49.3589
LeftForeArm  -45.9045 -37.0727 13.5987
LeftHand  -2.7553 -6.82322 -4.63623
RightShoulder  -4.77083e-015 -6.36111e-015 -3.18055e-015
RightArm  60.0021 -45.7489 -30.7924
RightForeArm  -61.2405 -13.0632 -3.64103
RightHand  -1.39718 9.29697 -5.00338
LeftUpLeg  16.2519 56.4203 14.0773
LeftLeg  30.2777 17.7196 16.894
LeftFoot  -14.5471 -0.300641 2.28436
LeftToes  1.27222e-014 1.09105e-011 6.96064e-012
